<?xml version="1.0" encoding="UTF-8"?>
<svg xmlns="http://www.w3.org/2000/svg" xmlns:xlink="http://www.w3.org/1999/xlink" viewBox="0 0 458.16 781.2">
  <defs>
    <style>
      .cls-1 {
        fill: #fff;
        filter: url(#outer-glow-1);
        mix-blend-mode: overlay;
        opacity: .61;
        stroke-width: 0px;
      }

      .cls-2 {
        isolation: isolate;
      }
    </style>
    <filter id="outer-glow-1" filterUnits="userSpaceOnUse">
      <feOffset dx="0" dy="0"/>
      <feGaussianBlur result="blur" stdDeviation="16.72"/>
      <feFlood flood-color="#fff" flood-opacity=".75"/>
      <feComposite in2="blur" operator="in"/>
      <feComposite in="SourceGraphic"/>
    </filter>
  </defs>
  <g class="cls-2">
    <g id="Layer_2" data-name="Layer 2">
      <g id="Layer_2-2" data-name="Layer 2">
        <path id="hand" class="cls-1" d="m178.13,65.03c64.1,89.18,66.64,338.15,107.73,415.52,52.29,98.46,132.93,86.32,120.72,96.16-11.42,9.19-48.01-3.94-65.47-5.02-22.57-1.39-8.83,29-3.9,41,9.01,21.94,43.19,88,43.74,100.02.98,21.2-54.9-97.44-61.57-94.45-11.7,5.25,27.28,78.21,30.81,93.13,12.26,51.82-32.48-37.61-37.77-54.68-9.75-31.48-10.08-33.63-17.56-31.42,0,0,.56,18.27,5.58,32.81,8.08,23.4,24.12,72.76,17.27,72.76-12.54,0-34.44-107.82-40.68-104.25-5.89,3.37-3.51,1.81,1.39,52.94,1.07,11.21-1.67,55.44-8.08,9.19-3.67-26.46-20.04-71.76-18.73-120.59,1.03-38.52-.74-51.08-37.35-123.49C190.94,398.57,52.13,88.74,50.35,70.08c-3.33-34.82,120.34-15.4,127.78-5.05Z"/>
      </g>
    </g>
  </g>
</svg>