<?xml version="1.0" encoding="UTF-8"?>
<svg xmlns="http://www.w3.org/2000/svg" xmlns:xlink="http://www.w3.org/1999/xlink" viewBox="0 0 211.44 373.44">
  <defs>
    <style>
      .cls-1 {
        isolation: isolate;
      }

      .cls-2 {
        filter: url(#outer-glow-1);
        mix-blend-mode: soft-light;
        opacity: .42;
      }

      .cls-2, .cls-3 {
        fill: #fff;
        stroke-width: 0px;
      }
    </style>
    <filter id="outer-glow-1" filterUnits="userSpaceOnUse">
      <feOffset dx="0" dy="0"/>
      <feGaussianBlur result="blur" stdDeviation="7.95"/>
      <feFlood flood-color="#fff" flood-opacity=".75"/>
      <feComposite in2="blur" operator="in"/>
      <feComposite in="SourceGraphic"/>
    </filter>
  </defs>
  <g class="cls-1">
    <g id="Layer_2" data-name="Layer 2">
      <g id="Layer_2-2" data-name="Layer 2">
        <g>
          <circle class="cls-3" cx="17.37" cy="4.05" r="4.05"/>
          <path class="cls-3" d="m20.82,17.49c0-4.91-.46-12.18,4.05-9.77,6.2,3.31,12.85,18.5,8.44,26.31-2.67,4.74-11.84,10.25-16.11,9.43-6.12-1.16-3.23-5.02,1.21-12.45,3.19-5.34,2.41-6.92,2.41-13.52Z"/>
          <path class="cls-3" d="m14.01,39.11c.59-2.68,5.74-4.12,4.65-1.44-3.87,9.53-1.81,13.24-1.06,28.58.18,3.7-6.61-13.36-3.59-27.15Z"/>
          <path class="cls-3" d="m18.45,41.26c.27-2.73,4.97-5.81,3.23.5-2.5,9.03,3.18,7.68,2.87,25.02-.07,3.7-7.42-11.91-6.1-25.52Z"/>
        </g>
        <path id="hand" class="cls-2" d="m84.81,47.43c30.5,42.43,51.39,214.02,53.11,218.1,1.44,3.43,41.24,28.8,49.16,34.31,3.05,2.12-14.18,3.45-24.92-9.94-4.42-5.52-8.35,5.17-3.98,12.06,5.18,8.16,23.35,31.16,21.24,33.64-3.08,3.61-12.89-14.02-16.07-16.94-2.36-2.16-6.72-13.35-10.84-10.95-6,3.49,14.67,39.35,11.64,41.44-2.58,1.78-7.03-7.72-12.19-19.49-1.62-3.69-6.83-17.08-9.68-18.19-3.05-1.19,9.54,35.52,8.47,36.1-7.14,3.85-13.78-34.35-15.5-34.64-3.76-.63,2.35,21.85,2.46,24.33.46,10.17-6.3-4.41-7.76-11.97-2.45-12.68-10.44-43.79-9.54-49.97,1.46-10.07-9.6-24.78-18.41-47.27C93.03,205.17,24.87,58.71,24.02,49.84c-1.59-16.57,57.25-7.33,60.79-2.4Z"/>
      </g>
    </g>
  </g>
</svg>