<?xml version="1.0" encoding="UTF-8"?>
<svg xmlns="http://www.w3.org/2000/svg" viewBox="0 0 334.14 119.68">
  <defs>
    <style>
      .cls-1 {
        mix-blend-mode: lighten;
      }

      .cls-2 {
        isolation: isolate;
      }

      .cls-3 {
        fill: #231f20;
        stroke-width: 0px;
      }
    </style>
  </defs>
  <g class="cls-2">
    <g id="Layer_2" data-name="Layer 2">
      <g id="power">
        <g>
          <g>
            <g id="_Radial_Repeat_" data-name="&amp;lt;Radial Repeat&amp;gt;">
              <path class="cls-3" d="m269.83,38.97c-9.13,1.84-12.98,12.77-10.08,20.94,2.67,8.42,9.49,14.74,16.65,19.52,4.84,3.24,10.09,5.83,15.43,8.15.22.1.32.35.22.57-.09.22-.35.32-.57.23-5.41-2.27-10.62-5.06-15.47-8.38-7.17-4.94-13.99-11.44-16.59-19.99-2.85-8.25,1.22-19.38,10.41-21.03h0Z"/>
            </g>
            <g id="_Radial_Repeat_-2" data-name="&amp;lt;Radial Repeat&amp;gt;">
              <path class="cls-3" d="m272.54,38.57c-9.29.66-14.51,11.01-12.68,19.48,1.57,8.69,7.52,15.83,14.02,21.49,4.39,3.83,9.26,7.07,14.26,10.05.21.12.27.39.15.59-.12.2-.38.27-.59.15-5.08-2.95-9.88-6.38-14.28-10.29-6.48-5.81-12.41-13.14-13.9-21.95-1.77-8.55,3.69-19.07,13.01-19.53h0Z"/>
            </g>
            <g id="_Radial_Repeat_-3" data-name="&amp;lt;Radial Repeat&amp;gt;">
              <path class="cls-3" d="m275.27,38.52c-9.29-.53-15.8,9.06-15.07,17.69.44,8.82,5.44,16.66,11.16,23.1,3.86,4.36,8.28,8.2,12.86,11.8.19.15.22.42.07.61-.15.19-.42.22-.6.08-4.66-3.57-8.99-7.59-12.84-12.03-5.68-6.59-10.63-14.62-10.98-23.55-.66-8.7,6.09-18.44,15.4-17.71h0Z"/>
            </g>
            <g id="_Radial_Repeat_-4" data-name="&amp;lt;Radial Repeat&amp;gt;">
              <path class="cls-3" d="m277.99,38.82c-9.15-1.72-16.83,6.97-17.2,15.62-.69,8.8,3.26,17.22,8.11,24.34,3.27,4.82,7.16,9.19,11.24,13.34.17.17.17.45,0,.61-.17.17-.44.17-.61,0-4.16-4.14-7.94-8.68-11.2-13.57-4.79-7.27-8.67-15.86-7.88-24.76.46-8.72,8.4-17.51,17.54-15.59h0Z"/>
            </g>
            <g id="_Radial_Repeat_-5" data-name="&amp;lt;Radial Repeat&amp;gt;">
              <path class="cls-3" d="m280.65,39.46c-8.85-2.87-17.58,4.76-19.06,13.29-1.81,8.64,1.03,17.5,4.93,25.18,2.63,5.2,5.93,10.03,9.45,14.67.14.19.11.46-.08.61-.19.14-.46.11-.6-.08-3.6-4.64-6.77-9.62-9.37-14.89-3.82-7.82-6.57-16.84-4.64-25.56,1.57-8.59,10.57-16.29,19.39-13.22h0Z"/>
            </g>
            <g id="_Radial_Repeat_-6" data-name="&amp;lt;Radial Repeat&amp;gt;">
              <path class="cls-3" d="m283.2,40.44c-8.41-3.98-18.05,2.47-20.6,10.75-2.9,8.34-1.21,17.48,1.67,25.6,1.94,5.49,4.6,10.7,7.49,15.76.12.21.05.47-.16.59-.21.12-.47.05-.59-.16-2.98-5.06-5.48-10.41-7.39-15.97-2.79-8.24-4.37-17.54-1.34-25.94,2.7-8.33,12.52-14.8,20.92-10.63h0Z"/>
            </g>
            <g id="_Radial_Repeat_-7" data-name="&amp;lt;Radial Repeat&amp;gt;">
              <path class="cls-3" d="m285.61,41.74c-7.84-5.02-18.21.14-21.81,8.03-3.94,7.9-3.44,17.19-1.62,25.61,1.22,5.7,3.19,11.2,5.42,16.59.09.22-.01.47-.24.57-.22.09-.47-.01-.56-.23-2.31-5.4-4.11-11.03-5.29-16.78-1.72-8.53-2.09-17.95,1.99-25.9,3.74-7.92,14.31-13.08,22.11-7.87h0Z"/>
            </g>
            <g id="_Radial_Repeat_-8" data-name="&amp;lt;Radial Repeat&amp;gt;">
              <path class="cls-3" d="m287.83,43.34c-7.13-5.99-18.08-2.19-22.66,5.17-4.92,7.33-5.61,16.6-4.88,25.19.48,5.81,1.73,11.52,3.25,17.14.06.23-.07.47-.31.53-.23.06-.47-.07-.53-.3-1.6-5.65-2.66-11.46-3.1-17.32-.61-8.68.22-18.07,5.29-25.43,4.72-7.37,15.86-11.14,22.93-4.98h0Z"/>
            </g>
            <g id="_Radial_Repeat_-9" data-name="&amp;lt;Radial Repeat&amp;gt;">
              <path class="cls-3" d="m289.83,45.2c-6.31-6.85-17.65-4.48-23.13,2.23-5.82,6.64-7.69,15.75-8.06,24.36-.26,5.82.25,11.65,1.03,17.42.03.24-.13.46-.37.49-.24.03-.45-.13-.49-.37-.86-5.81-1.17-11.71-.86-17.58.5-8.69,2.53-17.9,8.5-24.55,5.58-6.71,17.2-9.01,23.38-2.01h0Z"/>
            </g>
            <g id="_Radial_Repeat_-10" data-name="&amp;lt;Radial Repeat&amp;gt;">
              <path class="cls-3" d="m291.58,47.31c-5.38-7.6-16.93-6.7-23.23-.75-6.62,5.85-9.64,14.64-11.11,23.13-1,5.74-1.25,11.58-1.21,17.41,0,.24-.19.43-.43.44-.24,0-.43-.19-.44-.43-.11-5.87.33-11.76,1.4-17.54,1.61-8.55,4.8-17.43,11.57-23.26,6.44-5.94,18.17-6.76,23.45,1h0Z"/>
            </g>
            <g id="_Radial_Repeat_-11" data-name="&amp;lt;Radial Repeat&amp;gt;">
              <path class="cls-3" d="m293.04,49.62c-4.36-8.22-15.94-8.81-22.94-3.71-7.31,4.95-11.43,13.29-13.97,21.52-1.73,5.56-2.72,11.33-3.42,17.11-.03.24-.24.41-.48.38-.24-.03-.4-.24-.38-.48.64-5.84,1.83-11.62,3.63-17.22,2.69-8.28,6.99-16.67,14.44-21.59,7.1-5.08,18.93-4.35,23.12,3.99h0Z"/>
            </g>
            <g id="_Radial_Repeat_-12" data-name="&amp;lt;Radial Repeat&amp;gt;">
              <path class="cls-3" d="m294.19,52.1c-3.28-8.71-14.68-10.78-22.28-6.61-7.88,3.98-13.04,11.72-16.61,19.56-2.43,5.3-4.14,10.89-5.58,16.53-.06.23-.3.37-.53.31-.23-.06-.37-.29-.31-.52,1.38-5.71,3.3-11.29,5.8-16.61,3.73-7.87,9.06-15.64,17.09-19.57,7.69-4.13,19.33-1.89,22.42,6.91h0Z"/>
            </g>
            <g id="_Radial_Repeat_-13" data-name="&amp;lt;Radial Repeat&amp;gt;">
              <path class="cls-3" d="m295.02,54.71c-2.13-9.06-13.18-12.57-21.25-9.41-8.33,2.94-14.43,9.95-18.97,17.27-3.08,4.94-5.5,10.27-7.65,15.68-.09.22-.34.33-.56.24-.22-.09-.33-.34-.24-.56,2.1-5.48,4.72-10.78,7.88-15.73,4.7-7.32,10.99-14.35,19.45-17.22,8.16-3.11,19.41.59,21.36,9.73h0Z"/>
            </g>
            <g id="_Radial_Repeat_-14" data-name="&amp;lt;Radial Repeat&amp;gt;">
              <path class="cls-3" d="m295.5,57.4c-.96-9.26-11.47-14.15-19.87-12.05-8.63,1.85-15.58,8.03-21.03,14.7-3.69,4.51-6.77,9.48-9.59,14.58-.12.21-.38.29-.59.17-.21-.12-.28-.38-.17-.58,2.78-5.17,6.06-10.08,9.82-14.6,5.6-6.66,12.73-12.83,21.49-14.59,8.49-2.04,19.17,3.07,19.94,12.38h0Z"/>
            </g>
            <g id="_Radial_Repeat_-15" data-name="&amp;lt;Radial Repeat&amp;gt;">
              <path class="cls-3" d="m295.64,60.13c.23-9.31-9.56-15.5-18.17-14.49-8.8.73-16.48,5.97-22.73,11.89-4.24,4-7.93,8.54-11.38,13.23-.14.19-.41.23-.61.09-.19-.14-.23-.41-.1-.6,3.42-4.77,7.3-9.23,11.61-13.22,6.41-5.89,14.27-11.09,23.18-11.73,8.68-.94,18.62,5.5,18.19,14.82h0Z"/>
            </g>
            <g id="_Radial_Repeat_-16" data-name="&amp;lt;Radial Repeat&amp;gt;">
              <path class="cls-3" d="m295.43,62.86c1.42-9.2-7.5-16.6-16.17-16.69-8.82-.4-17.11,3.81-24.07,8.89-4.71,3.42-8.95,7.45-12.98,11.67-.17.17-.44.18-.61.01-.17-.16-.18-.44-.02-.61,4-4.29,8.42-8.22,13.21-11.63,7.11-5.02,15.57-9.18,24.49-8.66,8.73.18,17.77,7.84,16.15,17.03h0Z"/>
            </g>
            <g id="_Radial_Repeat_-17" data-name="&amp;lt;Radial Repeat&amp;gt;">
              <path class="cls-3" d="m294.87,65.53c2.59-8.94-5.32-17.42-13.9-18.63-8.7-1.53-17.45,1.59-25.01,5.74-5.11,2.79-9.83,6.25-14.36,9.91-.19.15-.46.12-.61-.06-.15-.18-.12-.46.06-.61,4.52-3.75,9.4-7.07,14.58-9.85,7.69-4.07,16.62-7.11,25.4-5.46,8.63,1.29,16.62,10.04,13.84,18.95h0Z"/>
            </g>
            <g id="_Radial_Repeat_-18" data-name="&amp;lt;Radial Repeat&amp;gt;">
              <path class="cls-3" d="m293.97,68.12c3.71-8.54-3.05-17.96-11.4-20.25-8.43-2.63-17.51-.65-25.54,2.49-5.43,2.12-10.55,4.94-15.51,7.99-.2.13-.47.06-.6-.14-.12-.2-.06-.47.14-.59,4.96-3.14,10.23-5.81,15.72-7.9,8.15-3.06,17.39-4.93,25.89-2.17,8.4,2.39,15.2,12.09,11.3,20.57h0Z"/>
            </g>
            <g id="_Radial_Repeat_-19" data-name="&amp;lt;Radial Repeat&amp;gt;">
              <path class="cls-3" d="m292.75,70.57c4.77-7.99-.72-18.2-8.72-21.54-8.02-3.68-17.29-2.89-25.64-.79-5.65,1.41-11.1,3.55-16.41,5.94-.22.1-.47,0-.57-.22-.1-.22,0-.47.21-.57,5.32-2.48,10.89-4.46,16.6-5.82,8.47-1.99,17.88-2.66,25.95,1.16,8.03,3.48,13.53,13.88,8.58,21.84h0Z"/>
            </g>
            <g id="_Radial_Repeat_-20" data-name="&amp;lt;Radial Repeat&amp;gt;">
              <path class="cls-3" d="m291.23,72.84c5.75-7.32,1.61-18.14-5.89-22.48-7.49-4.68-16.78-5.07-25.33-4.07-5.79.67-11.46,2.1-17.03,3.8-.23.07-.47-.06-.54-.29-.07-.23.06-.47.28-.54,5.59-1.78,11.37-3.03,17.21-3.65,8.66-.89,18.07-.36,25.59,4.47,7.52,4.48,11.65,15.5,5.71,22.76h0Z"/>
            </g>
            <g id="_Radial_Repeat_-21" data-name="&amp;lt;Radial Repeat&amp;gt;">
              <path class="cls-3" d="m289.43,74.9c6.64-6.52,3.91-17.79-2.97-23.05-6.83-5.6-15.99-7.18-24.6-7.27-5.83-.08-11.63.62-17.38,1.59-.24.04-.46-.12-.5-.36-.04-.23.12-.46.35-.5,5.78-1.05,11.66-1.55,17.54-1.42,8.7.23,17.97,1.96,24.81,7.7,6.89,5.41,9.57,16.86,2.75,23.3h0Z"/>
            </g>
            <g id="_Radial_Repeat_-22" data-name="&amp;lt;Radial Repeat&amp;gt;">
              <path class="cls-3" d="m287.38,76.71c7.42-5.62,6.16-17.14,0-23.24-6.05-6.43-14.94-9.16-23.47-10.36-5.77-.82-11.62-.87-17.44-.65-.24,0-.44-.18-.45-.42,0-.24.17-.44.41-.45,5.86-.3,11.76-.05,17.58.83,8.6,1.34,17.57,4.24,23.62,10.81,6.14,6.25,7.33,17.95-.25,23.47h0Z"/>
            </g>
            <g id="_Radial_Repeat_-23" data-name="&amp;lt;Radial Repeat&amp;gt;">
              <path class="cls-3" d="m285.12,78.24c8.08-4.62,8.3-16.21,2.97-23.05-5.18-7.15-13.65-11-21.96-13.28-5.62-1.55-11.41-2.35-17.21-2.87-.24-.02-.41-.23-.39-.47.02-.24.23-.41.47-.39,5.85.45,11.67,1.46,17.33,3.07,8.36,2.43,16.88,6.45,22.04,13.75,5.3,6.94,4.95,18.78-3.25,23.24h0Z"/>
            </g>
            <g id="_Radial_Repeat_-24" data-name="&amp;lt;Radial Repeat&amp;gt;">
              <path class="cls-3" d="m282.68,79.47c8.6-3.55,10.3-15.02,5.9-22.48-4.23-7.75-12.13-12.65-20.08-15.97-5.37-2.26-11.02-3.79-16.7-5.05-.23-.05-.38-.28-.33-.52.05-.23.28-.38.51-.33,5.75,1.2,11.39,2.94,16.79,5.26,7.98,3.47,15.92,8.56,20.11,16.45,4.37,7.56,2.51,19.26-6.19,22.63h0Z"/>
            </g>
            <g id="_Radial_Repeat_-25" data-name="&amp;lt;Radial Repeat&amp;gt;">
              <path class="cls-3" d="m280.1,80.38c8.99-2.42,12.14-13.58,8.72-21.54-3.2-8.23-10.41-14.1-17.87-18.41-5.04-2.92-10.44-5.17-15.92-7.14-.23-.08-.34-.33-.26-.55.08-.22.33-.34.55-.26,5.55,1.92,10.92,4.37,15.98,7.37,7.47,4.47,14.7,10.52,17.84,18.89,3.37,8.05.03,19.42-9.04,21.66h0Z"/>
            </g>
            <g id="_Radial_Repeat_-26" data-name="&amp;lt;Radial Repeat&amp;gt;">
              <path class="cls-3" d="m277.42,80.96c9.22-1.25,13.78-11.91,11.41-20.25-2.12-8.57-8.52-15.32-15.37-20.54-4.62-3.54-9.69-6.46-14.88-9.12-.21-.11-.3-.37-.19-.58.11-.21.37-.3.58-.19,5.26,2.62,10.27,5.73,14.91,9.35,6.84,5.39,13.23,12.32,15.27,21.01,2.31,8.42-2.46,19.26-11.73,20.32h0Z"/>
            </g>
            <g id="_Radial_Repeat_-27" data-name="&amp;lt;Radial Repeat&amp;gt;">
              <path class="cls-3" d="m274.7,81.18c9.31-.06,15.19-10.05,13.9-18.62-1.01-8.77-6.49-16.28-12.62-22.34-4.13-4.11-8.79-7.65-13.59-10.95-.2-.14-.25-.41-.11-.6.13-.2.4-.25.6-.11,4.88,3.27,9.46,7,13.59,11.18,6.09,6.22,11.55,13.91,12.46,22.79,1.22,8.64-4.9,18.79-14.23,18.66h0Z"/>
            </g>
            <g id="_Radial_Repeat_-28" data-name="&amp;lt;Radial Repeat&amp;gt;">
              <path class="cls-3" d="m271.96,81.06c9.24,1.13,16.35-8.03,16.17-16.69.12-8.83-4.36-16.98-9.65-23.77-3.57-4.6-7.74-8.71-12.08-12.6-.18-.16-.19-.43-.03-.61.16-.18.43-.19.61-.04,4.42,3.86,8.48,8.15,12.05,12.83,5.25,6.94,9.67,15.27,9.45,24.2.1,8.73-7.26,18.01-16.5,16.68h0Z"/>
            </g>
            <g id="_Radial_Repeat_-29" data-name="&amp;lt;Radial Repeat&amp;gt;">
              <path class="cls-3" d="m269.27,80.59c9.02,2.3,17.24-5.87,18.17-14.49,1.25-8.74-2.15-17.39-6.54-24.81-2.96-5.02-6.56-9.63-10.37-14.04-.16-.18-.14-.45.04-.61.18-.16.45-.14.61.04,3.89,4.4,7.37,9.17,10.31,14.26,4.32,7.56,7.64,16.38,6.27,25.21-1.02,8.67-9.51,16.93-18.5,14.44h0Z"/>
            </g>
            <g id="_Radial_Repeat_-30" data-name="&amp;lt;Radial Repeat&amp;gt;">
              <path class="cls-3" d="m266.66,79.77c8.65,3.43,17.85-3.62,19.87-12.05,2.36-8.51.09-17.53-3.31-25.44-2.29-5.36-5.27-10.39-8.49-15.25-.13-.2-.08-.47.12-.6.2-.13.46-.08.6.12,3.3,4.86,6.14,10.04,8.4,15.46,3.32,8.05,5.48,17.22,3,25.8-2.12,8.47-11.59,15.58-20.2,11.95h0Z"/>
            </g>
            <g id="_Radial_Repeat_-31" data-name="&amp;lt;Radial Repeat&amp;gt;">
              <path class="cls-3" d="m264.17,78.63c8.14,4.51,18.17-1.31,21.25-9.41,3.43-8.14,2.33-17.37-.03-25.66-1.59-5.61-3.9-10.98-6.47-16.21-.11-.21-.02-.47.2-.58.21-.1.47-.02.58.19,2.65,5.24,4.8,10.74,6.35,16.41,2.26,8.41,3.23,17.78-.33,25.98-3.23,8.14-13.44,13.97-21.56,9.27h0Z"/>
            </g>
            <g id="_Radial_Repeat_-32" data-name="&amp;lt;Radial Repeat&amp;gt;">
              <path class="cls-3" d="m261.85,77.18c7.5,5.52,18.18,1.03,22.28-6.61,4.44-7.63,4.53-16.93,3.25-25.45-.86-5.76-2.47-11.39-4.34-16.9-.08-.23.04-.47.27-.55.22-.08.47.04.55.27,1.96,5.53,3.39,11.27,4.2,17.09,1.17,8.63.93,18.05-3.65,25.72-4.2,7.66-15.17,12.13-22.57,6.44h0Z"/>
            </g>
            <g id="_Radial_Repeat_-33" data-name="&amp;lt;Radial Repeat&amp;gt;">
              <path class="cls-3" d="m259.74,75.45c6.73,6.43,17.9,3.34,22.94-3.71,5.38-7,6.66-16.21,6.48-24.83-.11-5.83-.99-11.61-2.14-17.32-.05-.23.1-.46.34-.51.23-.05.46.1.51.33,1.23,5.74,1.92,11.61,1.98,17.48.05,8.7-1.38,18.02-6.9,25.04-5.19,7.06-16.55,10.1-23.2,3.5h0Z"/>
            </g>
            <g id="_Radial_Repeat_-34" data-name="&amp;lt;Radial Repeat&amp;gt;">
              <path class="cls-3" d="m257.86,73.46c5.85,7.24,17.33,5.6,23.23-.74,6.23-6.26,8.68-15.23,9.6-23.79.63-5.79.5-11.64.09-17.45-.02-.24.16-.45.4-.46.24-.02.44.16.46.4.49,5.85.42,11.76-.27,17.59-1.06,8.64-3.68,17.7-10.05,23.96-6.05,6.34-17.7,7.91-23.46.5h0Z"/>
            </g>
            <g id="_Radial_Repeat_-35" data-name="&amp;lt;Radial Repeat&amp;gt;">
              <path class="cls-3" d="m256.26,71.24c4.88,7.93,16.47,7.78,23.13,2.23,6.98-5.41,10.56-13.99,12.57-22.37,1.37-5.66,1.99-11.48,2.32-17.3.01-.24.22-.42.46-.41.24.01.42.22.41.45-.27,5.86-1.08,11.71-2.52,17.42-2.16,8.43-5.91,17.08-13.03,22.47-6.81,5.51-18.57,5.58-23.33-2.5h0Z"/>
            </g>
            <g id="_Radial_Repeat_-36" data-name="&amp;lt;Radial Repeat&amp;gt;">
              <path class="cls-3" d="m254.95,68.84c3.83,8.49,15.34,9.82,22.66,5.17,7.61-4.47,12.26-12.53,15.32-20.58,2.08-5.44,3.44-11.13,4.51-16.86.04-.24.27-.39.51-.35.23.04.39.27.35.5-1.01,5.78-2.57,11.48-4.72,16.95-3.22,8.09-8.04,16.19-15.8,20.62-7.41,4.61-19.17,3.13-22.82-5.46h0Z"/>
            </g>
            <g id="_Radial_Repeat_-37" data-name="&amp;lt;Radial Repeat&amp;gt;">
              <path class="cls-3" d="m253.95,66.29c2.71,8.91,13.96,11.7,21.81,8.03,8.12-3.46,13.76-10.86,17.83-18.45,2.76-5.13,4.83-10.6,6.63-16.14.07-.23.32-.35.55-.28.23.07.35.31.28.54-1.74,5.61-4.02,11.06-6.85,16.21-4.23,7.61-10.05,15.03-18.31,18.43-7.94,3.63-19.41.65-21.94-8.34h0Z"/>
            </g>
            <g id="_Radial_Repeat_-38" data-name="&amp;lt;Radial Repeat&amp;gt;">
              <path class="cls-3" d="m253.3,63.64c1.55,9.18,12.35,13.39,20.6,10.75,8.5-2.4,15.03-9.01,20.04-16.02,3.39-4.74,6.15-9.9,8.64-15.16.1-.22.36-.31.58-.21.21.1.31.36.21.57-2.45,5.34-5.4,10.45-8.87,15.2-5.16,7.01-11.89,13.62-20.51,15.94-8.34,2.58-19.33-1.84-20.69-11.07h0Z"/>
            </g>
            <g id="_Radial_Repeat_-39" data-name="&amp;lt;Radial Repeat&amp;gt;">
              <path class="cls-3" d="m252.98,60.92c.36,9.3,10.54,14.86,19.06,13.3,8.74-1.29,16.06-7.01,21.93-13.32,3.97-4.26,7.36-9.03,10.51-13.93.13-.2.4-.26.6-.13.2.13.26.39.13.59-3.11,4.98-6.69,9.67-10.74,13.94-6.02,6.29-13.53,11.99-22.38,13.19-8.6,1.49-18.94-4.29-19.1-13.63h0Z"/>
            </g>
            <g id="_Radial_Repeat_-40" data-name="&amp;lt;Radial Repeat&amp;gt;">
              <path class="cls-3" d="m253.02,58.19c-.83,9.27,8.55,16.08,17.2,15.62,8.83-.16,16.83-4.9,23.45-10.41,4.48-3.72,8.46-8.01,12.2-12.47.15-.18.43-.21.61-.05.18.15.21.42.06.61-3.72,4.54-7.88,8.74-12.43,12.45-6.77,5.47-14.95,10.16-23.89,10.22-8.72.38-18.23-6.68-17.2-15.96h0Z"/>
            </g>
            <g id="_Radial_Repeat_-41" data-name="&amp;lt;Radial Repeat&amp;gt;">
              <path class="cls-3" d="m253.41,55.48c-2.01,9.09,6.42,17.04,15.06,17.7,8.78.97,17.32-2.71,24.59-7.33,4.92-3.12,9.41-6.86,13.7-10.81.18-.16.45-.15.61.03.16.17.15.45-.02.61-4.27,4.03-8.93,7.66-13.92,10.76-7.42,4.56-16.13,8.16-25,7.08-8.7-.74-17.23-8.96-15.02-18.03h0Z"/>
            </g>
            <g id="_Radial_Repeat_-42" data-name="&amp;lt;Radial Repeat&amp;gt;">
              <path class="cls-3" d="m254.13,52.84c-3.15,8.76,4.19,17.72,12.68,19.48,8.58,2.08,17.52-.47,25.32-4.12,5.28-2.46,10.21-5.6,14.97-8.97.2-.14.47-.09.6.1.14.19.09.46-.1.6-4.75,3.45-9.84,6.46-15.18,8.89-7.94,3.57-17.04,6.03-25.7,3.82-8.53-1.84-15.94-11.09-12.59-19.8h0Z"/>
            </g>
            <g id="_Radial_Repeat_-43" data-name="&amp;lt;Radial Repeat&amp;gt;">
              <path class="cls-3" d="m255.19,50.32c-4.25,8.28,1.89,18.11,10.08,20.94,8.24,3.16,17.44,1.77,25.64-.85,5.55-1.76,10.85-4.25,15.99-6.98.21-.11.47-.03.59.18.11.21.03.47-.18.58-5.15,2.81-10.58,5.15-16.2,6.88-8.33,2.53-17.67,3.8-25.97.51-8.24-2.96-14.39-12.99-9.96-21.25h0Z"/>
            </g>
            <g id="_Radial_Repeat_-44" data-name="&amp;lt;Radial Repeat&amp;gt;">
              <path class="cls-3" d="m256.57,47.96c-5.27,7.67-.44,18.21,7.32,22.06,7.77,4.19,17.07,3.99,25.54,2.44,5.73-1.04,11.3-2.83,16.75-4.88.22-.08.47.03.56.25.08.22-.03.47-.25.56-5.47,2.13-11.15,3.75-16.94,4.75-8.58,1.44-18.01,1.51-25.82-2.82-7.79-3.95-12.61-14.77-7.16-22.35h0Z"/>
            </g>
            <g id="_Radial_Repeat_-45" data-name="&amp;lt;Radial Repeat&amp;gt;">
              <path class="cls-3" d="m258.23,45.79c-6.21,6.93-2.77,18,4.44,22.81,7.17,5.15,16.42,6.14,25.02,5.68,5.82-.3,11.57-1.36,17.24-2.7.23-.05.47.09.52.32.05.23-.09.46-.32.52-5.7,1.41-11.54,2.29-17.41,2.54-8.7.33-18.06-.8-25.25-6.1-7.22-4.96-10.63-16.21-4.24-23.08h0Z"/>
            </g>
            <g id="_Radial_Repeat_-46" data-name="&amp;lt;Radial Repeat&amp;gt;">
              <path class="cls-3" d="m260.16,43.85c-7.05,6.08-5.05,17.5,1.49,23.19,6.45,6.03,15.5,8.19,24.09,8.83,5.81.45,11.65.13,17.44-.47.24-.02.45.15.48.39.02.24-.15.45-.38.48-5.83.67-11.74.8-17.59.3-8.67-.78-17.81-3.11-24.26-9.28-6.53-5.84-8.47-17.44-1.26-23.43h0Z"/>
            </g>
            <g id="_Radial_Repeat_-47" data-name="&amp;lt;Radial Repeat&amp;gt;">
              <path class="cls-3" d="m262.32,42.17c-7.77,5.13-7.24,16.71-1.49,23.19,5.63,6.8,14.32,10.1,22.76,11.84,5.7,1.19,11.54,1.62,17.36,1.76.24,0,.43.2.42.44,0,.24-.2.43-.44.42-5.87-.08-11.74-.71-17.49-1.96-8.5-1.89-17.26-5.36-22.88-12.3-5.73-6.63-6.17-18.38,1.75-23.4h0Z"/>
            </g>
            <g id="_Radial_Repeat_-48" data-name="&amp;lt;Radial Repeat&amp;gt;">
              <path class="cls-3" d="m264.68,40.79c-8.36,4.1-9.32,15.65-4.44,22.81,4.71,7.47,12.91,11.85,21.06,14.66,5.51,1.91,11.24,3.08,16.99,3.97.24.04.4.26.36.49-.04.23-.26.4-.49.36-5.81-.83-11.56-2.2-17.09-4.18-8.19-2.96-16.44-7.52-21.12-15.13-4.85-7.26-3.74-19.06,4.73-22.99h0Z"/>
            </g>
            <g id="_Radial_Repeat_-49" data-name="&amp;lt;Radial Repeat&amp;gt;">
              <path class="cls-3" d="m267.2,39.71c-8.81,2.99-11.25,14.33-7.32,22.06,3.72,8.01,11.29,13.4,19.01,17.23,5.22,2.6,10.75,4.49,16.35,6.11.23.07.36.31.3.54-.07.23-.3.36-.53.3-5.66-1.56-11.18-3.66-16.42-6.33-7.74-3.98-15.34-9.56-19.01-17.71-3.88-7.82-1.27-19.38,7.63-22.19h0Z"/>
            </g>
          </g>
          <path class="cls-3" d="m217.6,43.96l-49.48-5.11.59-5.7-71.63-7.39,1.13-10.94L17.96,6.55c4.64,4.79,8.26,8.54,11.88,12.28L0,15.75h0c9.28,9.59,14.48,14.97,23.75,24.56l81.95,8.46c2.74,2.84,5.63,5.82,9.08,9.39l100.28,10.35,2.53-24.54Z"/>
          <g class="cls-1">
            <g>
              <g>
                <path class="cls-3" d="m262.08,106.25c5.96,1.58,12.23,1.98,18.33,1.21l1.51,11.76c-7.58.96-15.42.47-22.86-1.5l3.02-11.46Z"/>
                <path class="cls-3" d="m252.2,88.45c3.68,2.84,7.9,4.97,12.36,6.22l-3.2,11.41c-5.94-1.66-11.54-4.49-16.41-8.25l7.25-9.38Z"/>
                <path class="cls-3" d="m268.12,83.32c3,.79,6.13,1,9.27.62l1.51,11.76c-4.62.58-9.32.28-13.8-.91l3.02-11.46Z"/>
              </g>
              <g>
                <path class="cls-3" d="m232.83,84.03c3.11,5.33,7.25,10.03,12.13,13.8l-7.25,9.38c-6.07-4.69-11.24-10.55-15.12-17.2l10.24-5.98Z"/>
                <path class="cls-3" d="m238.45,64.44c.61,4.62,2.09,9.09,4.37,13.12l-10.33,5.82c-3.03-5.37-5-11.34-5.8-17.43l11.76-1.51Z"/>
                <path class="cls-3" d="m253.3,72.08c1.56,2.68,3.67,5.07,6.15,6.99l-7.25,9.38c-3.68-2.84-6.8-6.39-9.14-10.39l10.24-5.98Z"/>
              </g>
              <g>
                <path class="cls-3" d="m227.9,47.62c-1.58,5.96-1.98,12.23-1.21,18.33l-11.76,1.51c-.96-7.58-.47-15.42,1.5-22.86l11.46,3.02Z"/>
                <path class="cls-3" d="m245.69,37.74c-2.84,3.68-4.97,7.9-6.22,12.36l-11.41-3.2c1.66-5.94,4.49-11.54,8.25-16.41l9.38,7.25Z"/>
                <path class="cls-3" d="m250.82,53.67c-.79,3-1,6.13-.62,9.27l-11.76,1.51c-.58-4.62-.28-9.32.91-13.8l11.46,3.02Z"/>
              </g>
              <g>
                <path class="cls-3" d="m250.11,18.37c-5.33,3.11-10.03,7.25-13.8,12.13l-9.38-7.25c4.69-6.07,10.55-11.24,17.2-15.12l5.98,10.24Z"/>
                <path class="cls-3" d="m269.7,23.99c-4.62.61-9.09,2.09-13.12,4.37l-5.82-10.33c5.37-3.03,11.34-5,17.43-5.8l1.51,11.76Z"/>
                <path class="cls-3" d="m262.06,38.84c-2.68,1.56-5.07,3.67-6.99,6.15l-9.38-7.25c2.84-3.68,6.39-6.8,10.39-9.14l5.98,10.24Z"/>
              </g>
              <g>
                <path class="cls-3" d="m286.52,13.44c-5.96-1.58-12.23-1.98-18.33-1.21l-1.51-11.76c7.58-.96,15.42-.47,22.86,1.5l-3.02,11.46Z"/>
                <path class="cls-3" d="m296.4,31.24c-3.68-2.84-7.9-4.97-12.36-6.22l3.2-11.41c5.94,1.66,11.54,4.49,16.41,8.25l-7.25,9.38Z"/>
                <path class="cls-3" d="m280.48,36.36c-3-.79-6.13-1-9.27-.62l-1.51-11.76c4.62-.58,9.32-.28,13.8.91l-3.02,11.46Z"/>
              </g>
              <g>
                <path class="cls-3" d="m315.77,35.66c-3.11-5.33-7.25-10.03-12.13-13.8l7.25-9.38c6.07,4.69,11.24,10.55,15.12,17.2l-10.24,5.98Z"/>
                <path class="cls-3" d="m310.15,55.24c-.61-4.62-2.09-9.09-4.37-13.12l10.33-5.82c3.03,5.37,5,11.34,5.8,17.43l-11.76,1.51Z"/>
                <path class="cls-3" d="m295.3,47.61c-1.56-2.68-3.67-5.07-6.15-6.99l7.25-9.38c3.68,2.84,6.8,6.39,9.14,10.39l-10.24,5.98Z"/>
              </g>
              <g>
                <path class="cls-3" d="m320.7,72.06c1.58-5.96,1.98-12.23,1.21-18.33l11.76-1.51c.96,7.58.47,15.42-1.5,22.86l-11.46-3.02Z"/>
                <path class="cls-3" d="m302.9,81.94c2.84-3.68,4.97-7.9,6.22-12.36l11.41,3.2c-1.66,5.94-4.49,11.54-8.25,16.41l-9.38-7.25Z"/>
                <path class="cls-3" d="m297.78,66.02c.79-3,1-6.13.62-9.27l11.76-1.51c.58,4.62.28,9.32-.91,13.8l-11.46-3.02Z"/>
              </g>
              <g>
                <path class="cls-3" d="m298.49,101.31c5.33-3.11,10.03-7.25,13.8-12.13l9.38,7.25c-4.69,6.07-10.55,11.24-17.2,15.12l-5.98-10.24Z"/>
                <path class="cls-3" d="m278.9,95.69c4.62-.61,9.09-2.09,13.12-4.37l5.82,10.33c-5.37,3.03-11.34,5-17.43,5.8l-1.51-11.76Z"/>
                <path class="cls-3" d="m286.54,80.84c2.68-1.56,5.07-3.67,6.99-6.15l9.38,7.25c-2.84,3.68-6.39,6.8-10.39,9.14l-5.98-10.24Z"/>
              </g>
            </g>
          </g>
        </g>
      </g>
    </g>
  </g>
</svg>