<?xml version="1.0" encoding="UTF-8"?>
<svg id="Layer_2" data-name="Layer 2" xmlns="http://www.w3.org/2000/svg" xmlns:xlink="http://www.w3.org/1999/xlink" viewBox="0 0 217.92 308.64">
  <defs>
    <style>
      .cls-1 {
        fill: #231f20;
      }

      .cls-1, .cls-2 {
        stroke-width: 0px;
      }

      .cls-2 {
        fill: url(#radial-gradient);
        filter: url(#drop-shadow-2);
      }

      .cls-3 {
        fill: none;
        filter: url(#drop-shadow-1);
        stroke: #fff;
        stroke-miterlimit: 10;
        stroke-width: 16px;
      }
    </style>
    <filter id="drop-shadow-1" filterUnits="userSpaceOnUse">
      <feOffset dx="8" dy="10"/>
      <feGaussianBlur result="blur" stdDeviation="5"/>
      <feFlood flood-color="#231f20" flood-opacity=".75"/>
      <feComposite in2="blur" operator="in"/>
      <feComposite in="SourceGraphic"/>
    </filter>
    <radialGradient id="radial-gradient" cx="94.19" cy="175.88" fx="94.19" fy="175.88" r="141.48" gradientUnits="userSpaceOnUse">
      <stop offset="0" stop-color="#fff"/>
      <stop offset=".38" stop-color="#fdfdfd"/>
      <stop offset=".52" stop-color="#f6f6f6"/>
      <stop offset=".62" stop-color="#eaeaea"/>
      <stop offset=".7" stop-color="#dad9d9"/>
      <stop offset=".77" stop-color="#c4c3c3"/>
      <stop offset=".83" stop-color="#a9a8a8"/>
      <stop offset=".88" stop-color="#8a8788"/>
      <stop offset=".93" stop-color="#656262"/>
      <stop offset=".98" stop-color="#3c3939"/>
      <stop offset="1" stop-color="#231f20"/>
    </radialGradient>
    <filter id="drop-shadow-2" filterUnits="userSpaceOnUse">
      <feOffset dx="8" dy="10"/>
      <feGaussianBlur result="blur-2" stdDeviation="5"/>
      <feFlood flood-color="#231f20" flood-opacity=".75"/>
      <feComposite in2="blur-2" operator="in"/>
      <feComposite in="SourceGraphic"/>
    </filter>
  </defs>
  <g id="_2" data-name="2">
    <g>
      <path class="cls-3" d="m27.76,136.19C31.44,50.96,54.04,13.12,98.59,13.12s67.03,44.33,67.03,123.08"/>
      <rect class="cls-2" x="7.24" y="136.19" width="187.65" height="147.34"/>
      <g>
        <g id="_Radial_Repeat_" data-name="&amp;lt;Radial Repeat&amp;gt;">
          <path class="cls-1" d="m111.95,178.19c-.96-.35-1.95-.65-2.97-.9-3.79-.92-3.88-1.64-7.63-1-14.1-3.26-43.47-2.91-53.31,5.56,5.05-9.47,11.61-17.56,19.12-23.86,11.93,3.03,36.14,10.74,44.79,20.2Z"/>
        </g>
        <g id="_Radial_Repeat_-2" data-name="&amp;lt;Radial Repeat&amp;gt;">
          <path class="cls-1" d="m127.37,193.05c-.51-.89-1.07-1.75-1.7-2.6-2.32-3.14-1.92-3.76-5.2-5.67-8.71-11.56-31.43-30.17-44.41-30.01,9.96-4.01,20.18-5.99,29.98-5.99,7.19,9.99,20.78,31.46,21.32,44.27Z"/>
        </g>
        <g id="_Radial_Repeat_-3" data-name="&amp;lt;Radial Repeat&amp;gt;">
          <path class="cls-1" d="m129.63,214.34c.18-1.01.3-2.03.37-3.08.24-3.89.94-4.11-.34-7.69.76-14.45-4.68-43.31-14.73-51.54,10.21,3.33,19.31,8.38,26.82,14.68-.91,12.27-4.3,37.46-12.12,47.62Z"/>
        </g>
        <g id="_Radial_Repeat_-4" data-name="&amp;lt;Radial Repeat&amp;gt;">
          <path class="cls-1" d="m117.67,232.1c.79-.66,1.54-1.36,2.26-2.12,2.69-2.83,3.37-2.54,4.68-6.1,9.87-10.59,24.26-36.19,21.84-48.95,5.68,9.11,9.41,18.84,11.11,28.49-8.58,8.82-27.37,25.93-39.89,28.69Z"/>
        </g>
        <g id="_Radial_Repeat_-5" data-name="&amp;lt;Radial Repeat&amp;gt;">
          <path class="cls-1" d="m97.09,238.03c1.03,0,2.06-.05,3.1-.17,3.88-.44,4.21.22,7.51-1.67,14.37-1.76,41.84-12.13,48.2-23.46-1.51,10.63-4.9,20.47-9.8,28.96-12.24,1.24-37.63,2.27-49-3.67Z"/>
        </g>
        <g id="_Radial_Repeat_-6" data-name="&amp;lt;Radial Repeat&amp;gt;">
          <path class="cls-1" d="m77.52,229.34c.79.66,1.61,1.28,2.48,1.86,3.25,2.16,3.09,2.87,6.82,3.55,12.14,7.88,39.85,17.61,52,13.01-7.99,7.17-16.92,12.53-26.13,15.89-10.17-6.92-30.29-22.45-35.18-34.3Z"/>
        </g>
        <g id="_Radial_Repeat_-7" data-name="&amp;lt;Radial Repeat&amp;gt;">
          <path class="cls-1" d="m68.12,210.1c.18,1.01.41,2.02.71,3.02,1.1,3.74.52,4.18,2.95,7.11,4.23,13.84,19.21,39.1,31.47,43.39-10.73.36-21.01-1.27-30.22-4.62-3.34-11.84-8.77-36.67-4.9-48.89Z"/>
        </g>
        <g id="_Radial_Repeat_-8" data-name="&amp;lt;Radial Repeat&amp;gt;">
          <path class="cls-1" d="m73.28,189.32c-.51.89-.98,1.81-1.4,2.77-1.56,3.58-2.29,3.54-2.31,7.34-5.65,13.32-10.42,42.3-3.78,53.47-8.45-6.62-15.28-14.48-20.18-22.97,5.05-11.22,16.85-33.72,27.68-40.6Z"/>
        </g>
        <g id="_Radial_Repeat_-9" data-name="&amp;lt;Radial Repeat&amp;gt;">
          <path class="cls-1" d="m90.59,176.72c-.97.35-1.91.75-2.85,1.22-3.49,1.74-4.03,1.24-6.49,4.14-12.9,6.57-35.17,25.71-37.27,38.53-2.22-10.5-2.4-20.92-.69-30.57,11.08-5.35,34.59-15,47.3-13.31Z"/>
        </g>
      </g>
      <g>
        <g id="_Radial_Repeat_-10" data-name="&amp;lt;Radial Repeat&amp;gt;">
          <path class="cls-1" d="m101.71,203.69c-.09-.08-.18-.15-.28-.22-.37-.26-.35-.34-.77-.43-1.37-.95-4.53-2.16-5.94-1.67.94-.8,1.99-1.39,3.06-1.74,1.15.83,3.41,2.68,3.94,4.06Z"/>
        </g>
        <g id="_Radial_Repeat_-11" data-name="&amp;lt;Radial Repeat&amp;gt;">
          <path class="cls-1" d="m103.13,206c-.02-.12-.04-.23-.07-.35-.11-.43-.05-.48-.32-.83-.44-1.61-2.08-4.56-3.48-5.1,1.24,0,2.41.21,3.46.63.35,1.37.89,4.25.4,5.64Z"/>
        </g>
        <g id="_Radial_Repeat_-12" data-name="&amp;lt;Radial Repeat&amp;gt;">
          <path class="cls-1" d="m102.74,208.68c.06-.1.12-.2.17-.31.19-.41.28-.4.29-.84.69-1.52,1.34-4.83.61-6.14.95.79,1.71,1.72,2.25,2.71-.62,1.28-2.05,3.83-3.32,4.58Z"/>
        </g>
        <g id="_Radial_Repeat_-13" data-name="&amp;lt;Radial Repeat&amp;gt;">
          <path class="cls-1" d="m100.71,210.49c.11-.04.22-.08.33-.13.41-.19.47-.13.76-.45,1.51-.71,4.13-2.84,4.41-4.31.22,1.22.21,2.41-.02,3.52-1.29.58-4.03,1.61-5.49,1.38Z"/>
        </g>
        <g id="_Radial_Repeat_-14" data-name="&amp;lt;Radial Repeat&amp;gt;">
          <path class="cls-1" d="m98,210.56c.11.04.22.08.34.11.43.12.44.2.87.14,1.61.42,4.99.48,6.15-.47-.61,1.07-1.39,1.98-2.28,2.68-1.36-.39-4.12-1.35-5.09-2.47Z"/>
        </g>
        <g id="_Radial_Repeat_-15" data-name="&amp;lt;Radial Repeat&amp;gt;">
          <path class="cls-1" d="m95.87,208.88c.06.1.12.21.19.3.26.37.21.44.58.67.97,1.36,3.52,3.57,5.01,3.6-1.16.43-2.34.62-3.47.59-.8-1.17-2.29-3.69-2.31-5.16Z"/>
        </g>
        <g id="_Radial_Repeat_-16" data-name="&amp;lt;Radial Repeat&amp;gt;">
          <path class="cls-1" d="m95.32,206.22c-.02.12-.04.23-.05.35-.04.45-.12.47.01.89-.13,1.66.4,5,1.53,5.98-1.16-.42-2.2-1.03-3.04-1.78.14-1.41.62-4.3,1.55-5.44Z"/>
        </g>
        <g id="_Radial_Repeat_-17" data-name="&amp;lt;Radial Repeat&amp;gt;">
          <path class="cls-1" d="m96.61,203.83c-.09.07-.18.15-.27.24-.32.32-.4.28-.56.69-1.17,1.19-2.91,4.09-2.67,5.56-.62-1.07-1.02-2.2-1.19-3.31,1.02-.99,3.23-2.89,4.68-3.17Z"/>
        </g>
        <g id="_Radial_Repeat_-18" data-name="&amp;lt;Radial Repeat&amp;gt;">
          <path class="cls-1" d="m99.13,202.83c-.12,0-.24,0-.36,0-.45.04-.48-.04-.87.17-1.66.16-4.85,1.26-5.62,2.54.21-1.22.63-2.34,1.22-3.3,1.41-.1,4.34-.14,5.63.58Z"/>
        </g>
      </g>
      <g>
        <g id="_Radial_Repeat_-19" data-name="&amp;lt;Radial Repeat&amp;gt;">
          <path class="cls-1" d="m98.82,198.56c-.27.05-.55.11-.82.18-1.02.29-1.14.13-1.93.78-3.77,1.12-10.65,5.12-11.85,8.43-.07-2.91.39-5.7,1.33-8.19,3.22-.88,9.97-2.29,13.27-1.21Z"/>
        </g>
        <g id="_Radial_Repeat_-20" data-name="&amp;lt;Radial Repeat&amp;gt;">
          <path class="cls-1" d="m104.22,200.21c-.24-.14-.49-.27-.75-.39-.97-.43-.95-.63-1.99-.64-3.6-1.57-11.45-2.93-14.5-1.15,1.82-2.28,3.96-4.11,6.28-5.42,3.03,1.4,9.11,4.65,10.95,7.6Z"/>
        </g>
        <g id="_Radial_Repeat_-21" data-name="&amp;lt;Radial Repeat&amp;gt;">
          <path class="cls-1" d="m107.29,204.94c-.09-.26-.2-.52-.32-.78-.46-.95-.33-1.1-1.11-1.77-1.75-3.51-6.89-9.6-10.36-10.2,2.85-.58,5.68-.6,8.29-.12,1.43,3.02,3.99,9.42,3.5,12.86Z"/>
        </g>
        <g id="_Radial_Repeat_-22" data-name="&amp;lt;Radial Repeat&amp;gt;">
          <path class="cls-1" d="m106.6,210.55c.1-.26.18-.53.25-.8.26-1.03.46-1.05.29-2.07.92-3.82.89-11.79-1.38-14.48,2.56,1.39,4.74,3.19,6.43,5.24-.85,3.23-3,9.78-5.59,12.1Z"/>
        </g>
        <g id="_Radial_Repeat_-23" data-name="&amp;lt;Radial Repeat&amp;gt;">
          <path class="cls-1" d="m102.47,214.4c.24-.14.48-.29.71-.45.86-.62,1.02-.51,1.55-1.4,3.16-2.34,8.26-8.45,8.25-11.98,1.06,2.71,1.58,5.49,1.55,8.15-2.73,1.93-8.58,5.56-12.06,5.68Z"/>
        </g>
        <g id="_Radial_Repeat_-24" data-name="&amp;lt;Radial Repeat&amp;gt;">
          <path class="cls-1" d="m96.83,214.69c.27.05.55.09.83.11,1.06.08,1.11.27,2.09-.07,3.92.24,11.76-1.17,14.02-3.87-.93,2.76-2.32,5.22-4.05,7.24-3.33-.28-10.15-1.26-12.89-3.4Z"/>
        </g>
        <g id="_Radial_Repeat_-25" data-name="&amp;lt;Radial Repeat&amp;gt;">
          <path class="cls-1" d="m92.33,211.29c.18.22.37.42.57.62.76.74.68.92,1.65,1.28,2.85,2.7,9.76,6.67,13.23,6.04-2.49,1.52-5.13,2.51-7.75,2.95-2.37-2.35-6.97-7.49-7.69-10.89Z"/>
        </g>
        <g id="_Radial_Repeat_-26" data-name="&amp;lt;Radial Repeat&amp;gt;">
          <path class="cls-1" d="m91.06,205.79c0,.28,0,.56.04.84.11,1.05-.07,1.14.43,2.04.44,3.9,3.19,11.38,6.25,13.13-2.88-.43-5.54-1.38-7.83-2.73-.31-3.32-.53-10.21,1.11-13.28Z"/>
        </g>
        <g id="_Radial_Repeat_-27" data-name="&amp;lt;Radial Repeat&amp;gt;">
          <path class="cls-1" d="m93.62,200.76c-.18.21-.35.43-.51.67-.59.88-.79.83-.98,1.84-2.17,3.27-4.87,10.77-3.65,14.08-1.93-2.18-3.36-4.62-4.25-7.13,1.9-2.74,6.16-8.16,9.39-9.46Z"/>
        </g>
      </g>
      <g>
        <g id="_Radial_Repeat_-28" data-name="&amp;lt;Radial Repeat&amp;gt;">
          <path class="cls-1" d="m108.02,220.19c-.42.27-.86.52-1.32.75-1.71.85-1.67,1.21-3.53,1.31-6.37,3.09-20.41,6.11-26.03,3.14,3.44,3.97,7.44,7.12,11.71,9.3,5.36-2.74,16.07-9.05,19.16-14.5Z"/>
        </g>
        <g id="_Radial_Repeat_-29" data-name="&amp;lt;Radial Repeat&amp;gt;">
          <path class="cls-1" d="m114.57,211.42c-.15.48-.32.95-.53,1.42-.76,1.75-.51,2-1.86,3.27-2.9,6.46-11.71,17.81-17.92,19.14,5.19.83,10.28.66,14.95-.4,2.35-5.54,6.49-17.26,5.36-23.43Z"/>
        </g>
        <g id="_Radial_Repeat_-30" data-name="&amp;lt;Radial Repeat&amp;gt;">
          <path class="cls-1" d="m113.96,200.49c.2.46.37.94.51,1.43.54,1.83.9,1.86.67,3.7,1.93,6.81,2.48,21.17-1.42,26.18,4.51-2.7,8.3-6.1,11.2-9.92-1.77-5.75-6.12-17.4-10.95-21.39Z"/>
        </g>
        <g id="_Radial_Repeat_-31" data-name="&amp;lt;Radial Repeat&amp;gt;">
          <path class="cls-1" d="m106.47,192.51c.45.23.88.48,1.31.77,1.59,1.06,1.88.85,2.9,2.4,5.86,3.98,15.5,14.62,15.74,20.97,1.72-4.96,2.44-10,2.2-14.79-5.05-3.27-15.87-9.39-22.14-9.35Z"/>
        </g>
        <g id="_Radial_Repeat_-32" data-name="&amp;lt;Radial Repeat&amp;gt;">
          <path class="cls-1" d="m95.59,191.21c.49-.11.99-.2,1.49-.25,1.9-.21,1.98-.56,3.76-.02,7.04-.72,21.27,1.24,25.53,5.95-1.87-4.91-4.56-9.23-7.82-12.75-5.97.74-18.19,3.01-22.97,7.07Z"/>
        </g>
        <g id="_Radial_Repeat_-33" data-name="&amp;lt;Radial Repeat&amp;gt;">
          <path class="cls-1" d="m86.43,197.21c.3-.4.63-.79.98-1.16,1.32-1.38,1.16-1.71,2.87-2.43,4.93-5.08,17.09-12.73,23.38-11.86-4.59-2.55-9.43-4.14-14.19-4.74-4.1,4.41-12,14-13.05,20.18Z"/>
        </g>
        <g id="_Radial_Repeat_-34" data-name="&amp;lt;Radial Repeat&amp;gt;">
          <path class="cls-1" d="m83.26,207.69c-.03-.5-.02-1.01,0-1.52.12-1.91-.21-2.05.63-3.71.51-7.06,4.91-20.74,10.29-24.11-5.16.99-9.88,2.89-13.91,5.49-.31,6.01-.2,18.44,2.98,23.85Z"/>
        </g>
        <g id="_Radial_Repeat_-35" data-name="&amp;lt;Radial Repeat&amp;gt;">
          <path class="cls-1" d="m87.58,217.76c-.34-.37-.66-.76-.97-1.17-1.13-1.54-1.48-1.44-1.9-3.25-4.14-5.74-9.57-19.04-7.62-25.09-3.31,4.08-5.71,8.57-7.13,13.15,3.63,4.8,11.7,14.25,17.61,16.35Z"/>
        </g>
        <g id="_Radial_Repeat_-36" data-name="&amp;lt;Radial Repeat&amp;gt;">
          <path class="cls-1" d="m97.35,222.7c-.5-.06-.99-.15-1.49-.27-1.86-.45-2.06-.15-3.54-1.27-6.86-1.73-19.57-8.44-21.96-14.32.08,5.25,1.13,10.24,2.99,14.65,5.87,1.35,18.13,3.4,24,1.21Z"/>
        </g>
      </g>
      <g>
        <g id="_Radial_Repeat_-37" data-name="&amp;lt;Radial Repeat&amp;gt;">
          <path class="cls-1" d="m101.84,213.11c-.12.1-.24.19-.36.28-.48.32-.45.43-1,.53-1.78,1.17-5.86,2.64-7.65,1.97,1.19,1.05,2.51,1.83,3.87,2.32,1.49-1.03,4.44-3.34,5.15-5.09Z"/>
        </g>
        <g id="_Radial_Repeat_-38" data-name="&amp;lt;Radial Repeat&amp;gt;">
          <path class="cls-1" d="m105.29,209.97c-.03.15-.06.3-.1.45-.16.55-.07.62-.43,1.05-.61,2.05-2.79,5.78-4.6,6.43,1.58.04,3.1-.21,4.45-.71.48-1.75,1.26-5.41.67-7.21Z"/>
        </g>
        <g id="_Radial_Repeat_-39" data-name="&amp;lt;Radial Repeat&amp;gt;">
          <path class="cls-1" d="m105.92,205.34c.08.13.15.27.21.41.23.53.34.52.35,1.08.85,1.96,1.58,6.23.61,7.88,1.24-.98,2.24-2.15,2.95-3.41-.76-1.65-2.52-4.95-4.12-5.96Z"/>
        </g>
        <g id="_Radial_Repeat_-40" data-name="&amp;lt;Radial Repeat&amp;gt;">
          <path class="cls-1" d="m103.42,201.4c.14.05.28.11.42.18.52.25.6.18.96.6,1.91.96,5.21,3.75,5.53,5.64.32-1.55.33-3.09.07-4.51-1.64-.78-5.11-2.18-6.99-1.91Z"/>
        </g>
        <g id="_Radial_Repeat_-41" data-name="&amp;lt;Radial Repeat&amp;gt;">
          <path class="cls-1" d="m98.97,199.98c.14-.05.29-.1.44-.14.56-.14.57-.25,1.12-.16,2.08-.49,6.41-.47,7.87.77-.75-1.39-1.73-2.58-2.84-3.5-1.76.46-5.32,1.62-6.58,3.02Z"/>
        </g>
        <g id="_Radial_Repeat_-42" data-name="&amp;lt;Radial Repeat&amp;gt;">
          <path class="cls-1" d="m94.65,201.75c.07-.13.16-.26.25-.38.34-.47.28-.56.76-.84,1.27-1.71,4.6-4.48,6.52-4.47-1.47-.58-2.98-.86-4.43-.85-1.05,1.48-3.03,4.66-3.1,6.55Z"/>
        </g>
        <g id="_Radial_Repeat_-43" data-name="&amp;lt;Radial Repeat&amp;gt;">
          <path class="cls-1" d="m92.48,205.88c-.03-.15-.05-.3-.06-.45-.04-.57-.14-.6.04-1.13-.13-2.13.65-6.39,2.12-7.61-1.5.5-2.84,1.26-3.94,2.19.15,1.81.67,5.52,1.84,7.01Z"/>
        </g>
        <g id="_Radial_Repeat_-44" data-name="&amp;lt;Radial Repeat&amp;gt;">
          <path class="cls-1" d="m93.48,210.45c-.12-.1-.23-.2-.34-.31-.4-.41-.5-.37-.7-.9-1.47-1.55-3.61-5.31-3.27-7.19-.83,1.35-1.37,2.79-1.61,4.21,1.27,1.29,4.06,3.79,5.91,4.19Z"/>
        </g>
        <g id="_Radial_Repeat_-45" data-name="&amp;lt;Radial Repeat&amp;gt;">
          <path class="cls-1" d="m97.17,213.3c-.15,0-.3,0-.46-.02-.57-.06-.62.04-1.11-.24-2.12-.25-6.18-1.75-7.13-3.41.23,1.57.74,3.01,1.47,4.26,1.81.17,5.55.3,7.22-.59Z"/>
        </g>
      </g>
    </g>
  </g>
</svg>